<svg xmlns="http://www.w3.org/2000/svg" xmlns:xlink="http://www.w3.org/1999/xlink" width="500" zoomAndPan="magnify" viewBox="0 0 375 374.999991" height="500" preserveAspectRatio="xMidYMid meet" version="1.0"><defs><g/><clipPath id="id1"><path d="M 37.5 153 L 55 153 L 55 214 L 37.5 214 Z M 37.5 153 " clip-rule="nonzero"/></clipPath><clipPath id="id2"><path d="M 37.5 216 L 111.386719 216 L 111.386719 222.121094 L 37.5 222.121094 Z M 37.5 216 " clip-rule="nonzero"/></clipPath><clipPath id="id3"><path d="M 79 152.484375 L 111.386719 152.484375 L 111.386719 214 L 79 214 Z M 79 152.484375 " clip-rule="nonzero"/></clipPath></defs><g fill="#ffffff" fill-opacity="1"><g transform="translate(132.978173, 184.665056)"><g><path d="M 13.328125 -5.171875 C 13.328125 -3.484375 12.722656 -2.15625 11.515625 -1.1875 C 10.304688 -0.226562 8.625 0.25 6.46875 0.25 C 4.476562 0.25 2.722656 -0.117188 1.203125 -0.859375 L 1.203125 -4.53125 C 2.453125 -3.96875 3.507812 -3.570312 4.375 -3.34375 C 5.25 -3.113281 6.046875 -3 6.765625 -3 C 7.628906 -3 8.289062 -3.164062 8.75 -3.5 C 9.21875 -3.832031 9.453125 -4.320312 9.453125 -4.96875 C 9.453125 -5.332031 9.347656 -5.65625 9.140625 -5.9375 C 8.941406 -6.226562 8.644531 -6.503906 8.25 -6.765625 C 7.851562 -7.035156 7.050781 -7.457031 5.84375 -8.03125 C 4.707031 -8.5625 3.851562 -9.070312 3.28125 -9.5625 C 2.71875 -10.0625 2.265625 -10.632812 1.921875 -11.28125 C 1.578125 -11.9375 1.40625 -12.703125 1.40625 -13.578125 C 1.40625 -15.222656 1.960938 -16.515625 3.078125 -17.453125 C 4.203125 -18.398438 5.75 -18.875 7.71875 -18.875 C 8.675781 -18.875 9.59375 -18.757812 10.46875 -18.53125 C 11.351562 -18.300781 12.273438 -17.976562 13.234375 -17.5625 L 11.96875 -14.5 C 10.96875 -14.90625 10.144531 -15.1875 9.5 -15.34375 C 8.851562 -15.507812 8.210938 -15.59375 7.578125 -15.59375 C 6.835938 -15.59375 6.265625 -15.414062 5.859375 -15.0625 C 5.460938 -14.71875 5.265625 -14.265625 5.265625 -13.703125 C 5.265625 -13.359375 5.34375 -13.054688 5.5 -12.796875 C 5.664062 -12.535156 5.925781 -12.285156 6.28125 -12.046875 C 6.632812 -11.804688 7.46875 -11.367188 8.78125 -10.734375 C 10.519531 -9.910156 11.710938 -9.078125 12.359375 -8.234375 C 13.003906 -7.398438 13.328125 -6.378906 13.328125 -5.171875 Z M 13.328125 -5.171875 "/></g></g></g><g fill="#ffffff" fill-opacity="1"><g transform="translate(149.148799, 184.665056)"><g><path d="M 13.734375 0 L 12.375 -4.421875 L 5.59375 -4.421875 L 4.25 0 L 0 0 L 6.5625 -18.6875 L 11.390625 -18.6875 L 17.984375 0 Z M 11.4375 -7.734375 C 10.1875 -11.742188 9.484375 -14.007812 9.328125 -14.53125 C 9.171875 -15.0625 9.0625 -15.484375 9 -15.796875 C 8.71875 -14.703125 7.914062 -12.015625 6.59375 -7.734375 Z M 11.4375 -7.734375 "/></g></g></g><g fill="#ffffff" fill-opacity="1"><g transform="translate(168.944156, 184.665056)"><g><path d="M 18.84375 0 L 13.828125 0 L 5.734375 -14.078125 L 5.625 -14.078125 C 5.78125 -11.585938 5.859375 -9.8125 5.859375 -8.75 L 5.859375 0 L 2.34375 0 L 2.34375 -18.609375 L 7.3125 -18.609375 L 15.390625 -4.671875 L 15.484375 -4.671875 C 15.359375 -7.085938 15.296875 -8.796875 15.296875 -9.796875 L 15.296875 -18.609375 L 18.84375 -18.609375 Z M 18.84375 0 "/></g></g></g><g fill="#ffffff" fill-opacity="1"><g transform="translate(191.944533, 184.665056)"><g/></g></g><g fill="#ffffff" fill-opacity="1"><g transform="translate(200.535034, 184.665056)"><g><path d="M 10.21875 0 L 5.734375 -14.59375 L 5.625 -14.59375 C 5.78125 -11.625 5.859375 -9.644531 5.859375 -8.65625 L 5.859375 0 L 2.34375 0 L 2.34375 -18.609375 L 7.71875 -18.609375 L 12.109375 -4.375 L 12.1875 -4.375 L 16.859375 -18.609375 L 22.234375 -18.609375 L 22.234375 0 L 18.546875 0 L 18.546875 -8.8125 C 18.546875 -9.226562 18.550781 -9.707031 18.5625 -10.25 C 18.582031 -10.789062 18.644531 -12.234375 18.75 -14.578125 L 18.625 -14.578125 L 13.828125 0 Z M 10.21875 0 "/></g></g></g><g fill="#ffffff" fill-opacity="1"><g transform="translate(226.918486, 184.665056)"><g><path d="M 9.296875 0 L 0.84375 0 L 0.84375 -2.234375 L 3.109375 -3.28125 L 3.109375 -15.328125 L 0.84375 -16.359375 L 0.84375 -18.609375 L 9.296875 -18.609375 L 9.296875 -16.359375 L 7.03125 -15.328125 L 7.03125 -3.28125 L 9.296875 -2.234375 Z M 9.296875 0 "/></g></g></g><g fill="#ffffff" fill-opacity="1"><g transform="translate(238.879352, 184.665056)"><g><path d="M 9.40625 -10.453125 L 16.78125 -10.453125 L 16.78125 -0.796875 C 15.582031 -0.410156 14.457031 -0.140625 13.40625 0.015625 C 12.351562 0.171875 11.273438 0.25 10.171875 0.25 C 7.359375 0.25 5.210938 -0.570312 3.734375 -2.21875 C 2.253906 -3.875 1.515625 -6.242188 1.515625 -9.328125 C 1.515625 -12.328125 2.375 -14.664062 4.09375 -16.34375 C 5.8125 -18.03125 8.191406 -18.875 11.234375 -18.875 C 13.140625 -18.875 14.984375 -18.492188 16.765625 -17.734375 L 15.453125 -14.578125 C 14.085938 -15.253906 12.675781 -15.59375 11.21875 -15.59375 C 9.507812 -15.59375 8.140625 -15.019531 7.109375 -13.875 C 6.085938 -12.726562 5.578125 -11.1875 5.578125 -9.25 C 5.578125 -7.226562 5.988281 -5.6875 6.8125 -4.625 C 7.644531 -3.5625 8.847656 -3.03125 10.421875 -3.03125 C 11.242188 -3.03125 12.078125 -3.113281 12.921875 -3.28125 L 12.921875 -7.171875 L 9.40625 -7.171875 Z M 9.40625 -10.453125 "/></g></g></g><g fill="#ffffff" fill-opacity="1"><g transform="translate(259.564985, 184.665056)"><g><path d="M 17.484375 -18.609375 L 17.484375 -6.5625 C 17.484375 -5.1875 17.175781 -3.984375 16.5625 -2.953125 C 15.945312 -1.921875 15.054688 -1.128906 13.890625 -0.578125 C 12.734375 -0.0234375 11.363281 0.25 9.78125 0.25 C 7.382812 0.25 5.523438 -0.359375 4.203125 -1.578125 C 2.878906 -2.804688 2.21875 -4.488281 2.21875 -6.625 L 2.21875 -18.609375 L 6.140625 -18.609375 L 6.140625 -7.21875 C 6.140625 -5.78125 6.425781 -4.722656 7 -4.046875 C 7.582031 -3.378906 8.539062 -3.046875 9.875 -3.046875 C 11.164062 -3.046875 12.097656 -3.382812 12.671875 -4.0625 C 13.253906 -4.738281 13.546875 -5.796875 13.546875 -7.234375 L 13.546875 -18.609375 Z M 17.484375 -18.609375 "/></g></g></g><g fill="#ffffff" fill-opacity="1"><g transform="translate(281.077317, 184.665056)"><g><path d="M 13.0625 0 L 2.34375 0 L 2.34375 -18.609375 L 13.0625 -18.609375 L 13.0625 -15.375 L 6.28125 -15.375 L 6.28125 -11.28125 L 12.578125 -11.28125 L 12.578125 -8.0625 L 6.28125 -8.0625 L 6.28125 -3.265625 L 13.0625 -3.265625 Z M 13.0625 0 "/></g></g></g><g fill="#ffffff" fill-opacity="1"><g transform="translate(297.489591, 184.665056)"><g><path d="M 2.34375 0 L 2.34375 -18.609375 L 6.28125 -18.609375 L 6.28125 -3.265625 L 13.828125 -3.265625 L 13.828125 0 Z M 2.34375 0 "/></g></g></g><g fill="#ffffff" fill-opacity="1"><g transform="translate(132.978173, 214.192368)"><g><path d="M 0.78125 0 L 3.640625 -13.515625 L 5.3125 -13.515625 L 2.765625 -1.515625 L 7.953125 -1.515625 L 7.625 0 Z M 0.78125 0 "/></g></g></g><g fill="#ffffff" fill-opacity="1"><g transform="translate(142.978125, 214.192368)"><g><path d="M 4.359375 0 L -0.375 0 L -0.1875 -0.921875 L 1.421875 -1.296875 L 3.71875 -12.21875 L 2.296875 -12.578125 L 2.484375 -13.515625 L 7.21875 -13.515625 L 7.03125 -12.578125 L 5.40625 -12.21875 L 3.09375 -1.296875 L 4.546875 -0.921875 Z M 4.359375 0 "/></g></g></g><g fill="#ffffff" fill-opacity="1"><g transform="translate(150.065327, 214.192368)"><g><path d="M 7.140625 -13.515625 C 8.460938 -13.515625 9.460938 -13.253906 10.140625 -12.734375 C 10.816406 -12.210938 11.15625 -11.4375 11.15625 -10.40625 C 11.15625 -9.539062 10.890625 -8.8125 10.359375 -8.21875 C 9.835938 -7.625 9.085938 -7.234375 8.109375 -7.046875 L 8.109375 -6.953125 C 8.804688 -6.753906 9.34375 -6.414062 9.71875 -5.9375 C 10.09375 -5.457031 10.28125 -4.878906 10.28125 -4.203125 C 10.28125 -2.898438 9.816406 -1.875 8.890625 -1.125 C 7.972656 -0.375 6.707031 0 5.09375 0 L 0.78125 0 L 3.640625 -13.515625 Z M 4.109375 -7.765625 L 6.328125 -7.765625 C 7.265625 -7.765625 8.007812 -7.984375 8.5625 -8.421875 C 9.113281 -8.859375 9.390625 -9.453125 9.390625 -10.203125 C 9.390625 -10.804688 9.195312 -11.265625 8.8125 -11.578125 C 8.4375 -11.898438 7.8125 -12.0625 6.9375 -12.0625 L 5.015625 -12.0625 Z M 2.765625 -1.4375 L 5.15625 -1.4375 C 6.226562 -1.4375 7.050781 -1.675781 7.625 -2.15625 C 8.207031 -2.632812 8.5 -3.316406 8.5 -4.203125 C 8.5 -4.898438 8.28125 -5.429688 7.84375 -5.796875 C 7.40625 -6.171875 6.765625 -6.359375 5.921875 -6.359375 L 3.8125 -6.359375 Z M 2.765625 -1.4375 "/></g></g></g><g fill="#ffffff" fill-opacity="1"><g transform="translate(162.376985, 214.192368)"><g><path d="M 13.03125 -13.515625 L 11.140625 -4.609375 C 10.785156 -2.960938 10.160156 -1.75 9.265625 -0.96875 C 8.378906 -0.195312 7.179688 0.1875 5.671875 0.1875 C 4.265625 0.1875 3.21875 -0.132812 2.53125 -0.78125 C 1.84375 -1.425781 1.5 -2.351562 1.5 -3.5625 C 1.5 -4.03125 1.570312 -4.628906 1.71875 -5.359375 L 3.46875 -13.515625 L 5.15625 -13.515625 L 3.390625 -5.265625 C 3.335938 -5.035156 3.289062 -4.75 3.25 -4.40625 C 3.207031 -4.070312 3.1875 -3.796875 3.1875 -3.578125 C 3.1875 -2.859375 3.398438 -2.296875 3.828125 -1.890625 C 4.253906 -1.492188 4.90625 -1.296875 5.78125 -1.296875 C 6.820312 -1.296875 7.628906 -1.5625 8.203125 -2.09375 C 8.785156 -2.632812 9.207031 -3.515625 9.46875 -4.734375 L 11.34375 -13.515625 Z M 13.03125 -13.515625 "/></g></g></g><g fill="#ffffff" fill-opacity="1"><g transform="translate(176.140395, 214.192368)"><g><path d="M 3.9375 -7.03125 L 5.421875 -7.03125 C 6.585938 -7.03125 7.476562 -7.285156 8.09375 -7.796875 C 8.71875 -8.304688 9.03125 -9.035156 9.03125 -9.984375 C 9.03125 -10.703125 8.828125 -11.222656 8.421875 -11.546875 C 8.023438 -11.878906 7.367188 -12.046875 6.453125 -12.046875 L 5.015625 -12.046875 Z M 3.640625 -5.578125 L 2.453125 0 L 0.78125 0 L 3.640625 -13.515625 L 6.609375 -13.515625 C 9.378906 -13.515625 10.765625 -12.375 10.765625 -10.09375 C 10.765625 -7.976562 9.644531 -6.601562 7.40625 -5.96875 L 9.640625 0 L 7.78125 0 L 5.859375 -5.578125 Z M 3.640625 -5.578125 "/></g></g></g><g fill="#ffffff" fill-opacity="1"><g transform="translate(187.943479, 214.192368)"><g><path d="M 13.03125 -13.515625 L 11.140625 -4.609375 C 10.785156 -2.960938 10.160156 -1.75 9.265625 -0.96875 C 8.378906 -0.195312 7.179688 0.1875 5.671875 0.1875 C 4.265625 0.1875 3.21875 -0.132812 2.53125 -0.78125 C 1.84375 -1.425781 1.5 -2.351562 1.5 -3.5625 C 1.5 -4.03125 1.570312 -4.628906 1.71875 -5.359375 L 3.46875 -13.515625 L 5.15625 -13.515625 L 3.390625 -5.265625 C 3.335938 -5.035156 3.289062 -4.75 3.25 -4.40625 C 3.207031 -4.070312 3.1875 -3.796875 3.1875 -3.578125 C 3.1875 -2.859375 3.398438 -2.296875 3.828125 -1.890625 C 4.253906 -1.492188 4.90625 -1.296875 5.78125 -1.296875 C 6.820312 -1.296875 7.628906 -1.5625 8.203125 -2.09375 C 8.785156 -2.632812 9.207031 -3.515625 9.46875 -4.734375 L 11.34375 -13.515625 Z M 13.03125 -13.515625 "/></g></g></g><g fill="#ffffff" fill-opacity="1"><g transform="translate(201.706887, 214.192368)"><g><path d="M 4.59375 0 L 2.875 0 L 5.421875 -12.015625 L 1.703125 -12.015625 L 2.03125 -13.515625 L 11.15625 -13.515625 L 10.859375 -12.015625 L 7.140625 -12.015625 Z M 4.59375 0 "/></g></g></g><g fill="#ffffff" fill-opacity="1"><g transform="translate(212.141437, 214.192368)"><g><path d="M 7.625 0 L 0.78125 0 L 3.640625 -13.515625 L 10.5 -13.515625 L 10.171875 -12.015625 L 5 -12.015625 L 4.109375 -7.796875 L 8.9375 -7.796875 L 8.65625 -6.328125 L 3.8125 -6.328125 L 2.765625 -1.5 L 7.953125 -1.5 Z M 7.625 0 "/></g></g></g><g fill="#ffffff" fill-opacity="1"><g transform="translate(222.825652, 214.192368)"><g><path d="M 7.53125 -7.125 L 11.875 -7.125 L 10.4375 -0.515625 C 9.6875 -0.253906 9.003906 -0.0703125 8.390625 0.03125 C 7.773438 0.132812 7.140625 0.1875 6.484375 0.1875 C 4.867188 0.1875 3.609375 -0.257812 2.703125 -1.15625 C 1.804688 -2.050781 1.359375 -3.300781 1.359375 -4.90625 C 1.359375 -6.550781 1.675781 -8.054688 2.3125 -9.421875 C 2.945312 -10.785156 3.820312 -11.84375 4.9375 -12.59375 C 6.050781 -13.34375 7.289062 -13.71875 8.65625 -13.71875 C 9.375 -13.71875 10.046875 -13.65625 10.671875 -13.53125 C 11.296875 -13.40625 11.929688 -13.203125 12.578125 -12.921875 L 11.921875 -11.4375 C 11.453125 -11.644531 10.945312 -11.828125 10.40625 -11.984375 C 9.875 -12.140625 9.285156 -12.21875 8.640625 -12.21875 C 7.617188 -12.21875 6.6875 -11.90625 5.84375 -11.28125 C 5 -10.664062 4.335938 -9.804688 3.859375 -8.703125 C 3.390625 -7.609375 3.15625 -6.378906 3.15625 -5.015625 C 3.15625 -3.847656 3.460938 -2.9375 4.078125 -2.28125 C 4.691406 -1.625 5.554688 -1.296875 6.671875 -1.296875 C 7.535156 -1.296875 8.3125 -1.410156 9 -1.640625 L 9.859375 -5.640625 L 7.21875 -5.640625 Z M 7.53125 -7.125 "/></g></g></g><g fill="#ffffff" fill-opacity="1"><g transform="translate(236.6168, 214.192368)"><g><path d="M 4.359375 0 L -0.375 0 L -0.1875 -0.921875 L 1.421875 -1.296875 L 3.71875 -12.21875 L 2.296875 -12.578125 L 2.484375 -13.515625 L 7.21875 -13.515625 L 7.03125 -12.578125 L 5.40625 -12.21875 L 3.09375 -1.296875 L 4.546875 -0.921875 Z M 4.359375 0 "/></g></g></g><g fill="#ffffff" fill-opacity="1"><g transform="translate(243.704, 214.192368)"><g><path d="M 7.53125 -4.203125 L 2.984375 -4.203125 L 0.78125 0 L -1.078125 0 L 6.265625 -13.515625 L 8.046875 -13.515625 L 9.71875 0 L 8.046875 0 Z M 7.375 -5.71875 L 7.0625 -8.546875 C 6.894531 -9.941406 6.8125 -11 6.8125 -11.71875 C 6.613281 -11.25 6.394531 -10.773438 6.15625 -10.296875 C 5.925781 -9.816406 5.140625 -8.289062 3.796875 -5.71875 Z M 7.375 -5.71875 "/></g></g></g><g clip-path="url(#id1)"><path fill="#7acbcd" d="M 52.269531 213.222656 L 39.652344 213.222656 C 38.535156 213.222656 37.621094 212.308594 37.621094 211.195312 L 37.621094 155.820312 C 37.621094 154.707031 38.535156 153.792969 39.652344 153.792969 L 52.269531 153.792969 C 53.382812 153.792969 54.296875 154.707031 54.296875 155.820312 L 54.296875 211.195312 C 54.296875 212.308594 53.382812 213.222656 52.269531 213.222656 Z M 52.269531 213.222656 " fill-opacity="1" fill-rule="nonzero"/></g><g clip-path="url(#id2)"><path fill="#ffffff" d="M 111.214844 217.273438 L 111.214844 221.007812 C 111.214844 221.644531 110.699219 222.121094 110.101562 222.121094 L 38.734375 222.121094 C 38.097656 222.121094 37.621094 221.605469 37.621094 221.007812 L 37.621094 217.273438 C 37.621094 216.640625 38.136719 216.164062 38.734375 216.164062 L 110.101562 216.164062 C 110.738281 216.164062 111.214844 216.679688 111.214844 217.273438 Z M 111.214844 217.273438 " fill-opacity="1" fill-rule="nonzero"/></g><path fill="#ffffff" d="M 73.5625 213.222656 L 60.945312 213.222656 C 59.832031 213.222656 58.914062 212.308594 58.914062 211.195312 L 58.914062 155.820312 C 58.914062 154.707031 59.832031 153.792969 60.945312 153.792969 L 73.5625 153.792969 C 74.675781 153.792969 75.59375 154.707031 75.59375 155.820312 L 75.59375 211.195312 C 75.550781 212.308594 74.675781 213.222656 73.5625 213.222656 Z M 73.5625 213.222656 " fill-opacity="1" fill-rule="nonzero"/><g clip-path="url(#id3)"><path fill="#ffffff" d="M 109.78125 209.566406 L 97.683594 213.105469 C 96.609375 213.421875 95.492188 212.824219 95.175781 211.753906 L 79.492188 158.640625 C 79.175781 157.566406 79.773438 156.457031 80.847656 156.136719 L 92.945312 152.5625 C 94.019531 152.246094 95.136719 152.839844 95.453125 153.914062 L 111.136719 207.066406 C 111.453125 208.136719 110.859375 209.25 109.78125 209.566406 Z M 109.78125 209.566406 " fill-opacity="1" fill-rule="nonzero"/></g></svg>